<svg width="25" height="24" viewBox="0 0 25 24" fill="none" xmlns="http://www.w3.org/2000/svg">
<g clip-path="url(#clip0_52374_2678)">
<mask id="mask0_52374_2678" style="mask-type:luminance" maskUnits="userSpaceOnUse" x="0" y="0" width="25" height="24">
<path d="M24.5 0H0.5V24H24.5V0Z" fill="white"/>
</mask>
<g mask="url(#mask0_52374_2678)">
<path d="M24.2683 12.2763C24.2683 11.4605 24.2021 10.6404 24.061 9.83789H12.7422V14.4589H19.224C18.955 15.9492 18.0908 17.2676 16.8253 18.1054V21.1038H20.6923C22.9631 19.0137 24.2683 15.9272 24.2683 12.2763Z" fill="#4285F4"/>
<path d="M12.743 24.0013C15.9795 24.0013 18.7088 22.9387 20.6974 21.1044L16.8305 18.106C15.7546 18.838 14.3656 19.2525 12.7474 19.2525C9.61681 19.2525 6.96239 17.1404 6.00998 14.3008H2.01953V17.3917C4.05664 21.4439 8.20583 24.0013 12.743 24.0013Z" fill="#34A853"/>
<path d="M6.00472 14.3007C5.50206 12.8104 5.50206 11.1966 6.00472 9.70617V6.61523H2.01869C0.316686 10.006 0.316686 14.0009 2.01869 17.3917L6.00472 14.3007Z" fill="#FBBC04"/>
<path d="M12.743 4.74966C14.4538 4.7232 16.1073 5.36697 17.3463 6.54867L20.7724 3.12262C18.603 1.0855 15.7237 -0.034466 12.743 0.000808669C8.20583 0.000808669 4.05664 2.55822 2.01953 6.61481L6.00557 9.70575C6.95357 6.86173 9.6124 4.74966 12.743 4.74966Z" fill="#FF5E14"/>
</g>
</g>
<defs>
<clipPath id="clip0_52374_2678">
<rect width="25" height="24" fill="white"/>
</clipPath>
</defs>
</svg>
